<?xml version="1.0" encoding="UTF-8" standalone="no"?>
<!DOCTYPE svg PUBLIC "-//W3C//DTD SVG 1.1//EN"
 "http://www.w3.org/Graphics/SVG/1.1/DTD/svg11.dtd">
<!-- Generated by graphviz version 2.38.0 (20140413.2041)
 -->
<!-- Title: G Pages: 1 -->
<svg width="287pt" height="404pt"
 viewBox="0.00 0.00 287.19 404.00" xmlns="http://www.w3.org/2000/svg" xmlns:xlink="http://www.w3.org/1999/xlink">
<g id="graph0" class="graph" transform="scale(1 1) rotate(0) translate(4 400)">
<title>G</title>
<polygon fill="white" stroke="none" points="-4,4 -4,-400 283.186,-400 283.186,4 -4,4"/>
<!-- data_parallel -->
<g id="node1" class="node"><title>data_parallel</title>
<ellipse fill="none" stroke="black" cx="71.4937" cy="-234" rx="71.4873" ry="18"/>
<text text-anchor="middle" x="71.4937" y="-230.3" font-family="Times,serif" font-size="14.00">data_parallel</text>
</g>
<!-- environment -->
<g id="node2" class="node"><title>environment</title>
<ellipse fill="none" stroke="black" cx="110.494" cy="-162" rx="69.5877" ry="18"/>
<text text-anchor="middle" x="110.494" y="-158.3" font-family="Times,serif" font-size="14.00">environment</text>
</g>
<!-- data_parallel&#45;&gt;environment -->
<g id="edge1" class="edge"><title>data_parallel&#45;&gt;environment</title>
<path fill="none" stroke="black" d="M80.9345,-216.055C85.4185,-208.007 90.8797,-198.205 95.8821,-189.226"/>
<polygon fill="black" stroke="black" points="99.0593,-190.714 100.869,-180.275 92.9443,-187.308 99.0593,-190.714"/>
</g>
<!-- parallel_utilities -->
<g id="node4" class="node"><title>parallel_utilities</title>
<ellipse fill="none" stroke="black" cx="132.494" cy="-90" rx="86.3847" ry="18"/>
<text text-anchor="middle" x="132.494" y="-86.3" font-family="Times,serif" font-size="14.00">parallel_utilities</text>
</g>
<!-- environment&#45;&gt;parallel_utilities -->
<g id="edge6" class="edge"><title>environment&#45;&gt;parallel_utilities</title>
<path fill="none" stroke="black" d="M115.932,-143.697C118.383,-135.898 121.334,-126.509 124.062,-117.829"/>
<polygon fill="black" stroke="black" points="127.459,-118.694 127.118,-108.104 120.781,-116.595 127.459,-118.694"/>
</g>
<!-- data_parameters -->
<g id="node3" class="node"><title>data_parameters</title>
<ellipse fill="none" stroke="black" cx="189.494" cy="-306" rx="89.8845" ry="18"/>
<text text-anchor="middle" x="189.494" y="-302.3" font-family="Times,serif" font-size="14.00">data_parameters</text>
</g>
<!-- data_parameters&#45;&gt;data_parallel -->
<g id="edge2" class="edge"><title>data_parameters&#45;&gt;data_parallel</title>
<path fill="none" stroke="black" d="M162.125,-288.765C145.776,-279.066 124.826,-266.638 107.187,-256.174"/>
<polygon fill="black" stroke="black" points="108.693,-252.998 98.3066,-250.906 105.121,-259.018 108.693,-252.998"/>
</g>
<!-- data_parameters&#45;&gt;environment -->
<g id="edge3" class="edge"><title>data_parameters&#45;&gt;environment</title>
<path fill="none" stroke="black" d="M183.704,-287.984C177.117,-269.603 165.446,-239.76 151.494,-216 145.78,-206.269 138.509,-196.304 131.683,-187.678"/>
<polygon fill="black" stroke="black" points="134.361,-185.424 125.338,-179.87 128.928,-189.838 134.361,-185.424"/>
</g>
<!-- data_parameters&#45;&gt;parallel_utilities -->
<g id="edge4" class="edge"><title>data_parameters&#45;&gt;parallel_utilities</title>
<path fill="none" stroke="black" d="M193.83,-287.641C200.538,-257.105 210.594,-192.431 189.494,-144 184.434,-132.386 175.436,-122.171 166.062,-113.887"/>
<polygon fill="black" stroke="black" points="168.123,-111.05 158.179,-107.395 163.673,-116.453 168.123,-111.05"/>
</g>
<!-- utilities -->
<g id="node5" class="node"><title>utilities</title>
<ellipse fill="none" stroke="black" cx="189.494" cy="-18" rx="46.2923" ry="18"/>
<text text-anchor="middle" x="189.494" y="-14.3" font-family="Times,serif" font-size="14.00">utilities</text>
</g>
<!-- data_parameters&#45;&gt;utilities -->
<g id="edge5" class="edge"><title>data_parameters&#45;&gt;utilities</title>
<path fill="none" stroke="black" d="M199.873,-287.984C205.499,-277.895 211.999,-264.645 215.494,-252 236.849,-174.719 252.03,-148.331 227.494,-72 224.167,-61.6523 217.992,-51.6122 211.572,-43.1043"/>
<polygon fill="black" stroke="black" points="214.166,-40.7448 205.167,-35.1523 208.714,-45.1358 214.166,-40.7448"/>
</g>
<!-- parallel_utilities&#45;&gt;utilities -->
<g id="edge8" class="edge"><title>parallel_utilities&#45;&gt;utilities</title>
<path fill="none" stroke="black" d="M146.292,-72.055C153.325,-63.4175 162.003,-52.7599 169.733,-43.2681"/>
<polygon fill="black" stroke="black" points="172.615,-45.2714 176.215,-35.307 167.187,-40.8514 172.615,-45.2714"/>
</g>
<!-- mo_kind -->
<g id="node6" class="node"><title>mo_kind</title>
<ellipse fill="none" stroke="black" cx="189.494" cy="-378" rx="50.0912" ry="18"/>
<text text-anchor="middle" x="189.494" y="-374.3" font-family="Times,serif" font-size="14.00">mo_kind</text>
</g>
<!-- mo_kind&#45;&gt;data_parameters -->
<g id="edge7" class="edge"><title>mo_kind&#45;&gt;data_parameters</title>
<path fill="none" stroke="black" d="M189.494,-359.697C189.494,-351.983 189.494,-342.712 189.494,-334.112"/>
<polygon fill="black" stroke="black" points="192.994,-334.104 189.494,-324.104 185.994,-334.104 192.994,-334.104"/>
</g>
</g>
</svg>
